<svg xmlns="http://www.w3.org/2000/svg" width="27.971" height="24.474" viewBox="0 0 27.971 24.474">
  <path id="Icon_awesome-briefcase" data-name="Icon awesome-briefcase" d="M17.482,18.858a.874.874,0,0,1-.874.874H11.363a.874.874,0,0,1-.874-.874V16.235H0V24.1a2.689,2.689,0,0,0,2.622,2.622H25.348A2.689,2.689,0,0,0,27.971,24.1V16.235H17.482ZM25.348,7.494h-4.37V4.872A2.689,2.689,0,0,0,18.356,2.25H9.615A2.689,2.689,0,0,0,6.993,4.872V7.494H2.622A2.689,2.689,0,0,0,0,10.117v4.37H27.971v-4.37A2.689,2.689,0,0,0,25.348,7.494Zm-7.867,0H10.489V5.746h6.993Z" transform="translate(0 -2.25)" fill="#7e7e7e"/>
</svg>
