<svg xmlns="http://www.w3.org/2000/svg" width="27.721" height="24.256" viewBox="0 0 27.721 24.256">
  <path id="Icon_awesome-comment-dots" data-name="Icon awesome-comment-dots" d="M13.861,2.25C6.2,2.25,0,7.291,0,13.512a10,10,0,0,0,3.086,7.076A13.774,13.774,0,0,1,.119,25.775a.43.43,0,0,0-.081.471.424.424,0,0,0,.4.26,12.382,12.382,0,0,0,7.613-2.783,16.512,16.512,0,0,0,5.815,1.05c7.656,0,13.861-5.041,13.861-11.262S21.516,2.25,13.861,2.25ZM6.93,15.244a1.733,1.733,0,1,1,1.733-1.733A1.731,1.731,0,0,1,6.93,15.244Zm6.93,0a1.733,1.733,0,1,1,1.733-1.733A1.731,1.731,0,0,1,13.861,15.244Zm6.93,0a1.733,1.733,0,1,1,1.733-1.733A1.731,1.731,0,0,1,20.791,15.244Z" transform="translate(0 -2.25)" fill="#7e7e7e"/>
</svg>
