<svg xmlns="http://www.w3.org/2000/svg" width="34.963" height="24.474" viewBox="0 0 34.963 24.474">
  <path id="Icon_awesome-user-friends" data-name="Icon awesome-user-friends" d="M10.489,14.487A6.119,6.119,0,1,0,4.37,8.369,6.115,6.115,0,0,0,10.489,14.487Zm4.2,1.748h-.453a8.448,8.448,0,0,1-7.484,0H6.293A6.3,6.3,0,0,0,0,22.529V24.1a2.623,2.623,0,0,0,2.622,2.622H18.356A2.623,2.623,0,0,0,20.978,24.1V22.529A6.3,6.3,0,0,0,14.685,16.235Zm11.538-1.748a5.244,5.244,0,1,0-5.244-5.244A5.246,5.246,0,0,0,26.222,14.487Zm2.622,1.748h-.208a6.889,6.889,0,0,1-4.829,0H23.6a6.068,6.068,0,0,0-3.043.841,8,8,0,0,1,2.169,5.452v2.1c0,.12-.027.235-.033.35h9.648a2.623,2.623,0,0,0,2.622-2.622A6.115,6.115,0,0,0,28.845,16.235Z" transform="translate(0 -2.25)" fill="#7e7e7e"/>
</svg>
