<svg xmlns="http://www.w3.org/2000/svg" width="31.473" height="24.474" viewBox="0 0 31.473 24.474">
  <path id="Icon_awesome-home" data-name="Icon awesome-home" d="M15.318,8.6,5.245,16.9v8.954a.874.874,0,0,0,.874.874l6.123-.016a.874.874,0,0,0,.87-.874V20.609a.874.874,0,0,1,.874-.874h3.5a.874.874,0,0,1,.874.874v5.225a.874.874,0,0,0,.874.877l6.12.017a.874.874,0,0,0,.874-.874v-8.96L16.154,8.6A.666.666,0,0,0,15.318,8.6ZM31.23,14.242l-4.568-3.765V2.909a.656.656,0,0,0-.656-.656h-3.06a.656.656,0,0,0-.656.656V6.876L17.4,2.852a2.623,2.623,0,0,0-3.333,0L.237,14.242a.656.656,0,0,0-.087.923l1.393,1.694a.656.656,0,0,0,.924.089L15.318,6.363a.666.666,0,0,1,.836,0L29.006,16.948a.656.656,0,0,0,.923-.087l1.393-1.694a.656.656,0,0,0-.093-.925Z" transform="translate(0.001 -2.254)" fill="#fff"/>
</svg>
