<svg xmlns="http://www.w3.org/2000/svg" width="38" height="38" viewBox="0 0 38 38">
  <path id="Icon_awesome-linkedin" data-name="Icon awesome-linkedin" d="M35.286,2.25H2.706A2.726,2.726,0,0,0,0,4.99V37.51a2.726,2.726,0,0,0,2.706,2.74h32.58A2.733,2.733,0,0,0,38,37.51V4.99A2.733,2.733,0,0,0,35.286,2.25Zm-23.8,32.571H5.853V16.687h5.641V34.821ZM8.669,14.21a3.266,3.266,0,1,1,3.266-3.266A3.267,3.267,0,0,1,8.669,14.21ZM32.6,34.821H26.965V26c0-2.1-.042-4.809-2.926-4.809-2.935,0-3.384,2.29-3.384,4.657v8.974H15.022V16.687h5.4v2.477H20.5a5.932,5.932,0,0,1,5.335-2.926c5.7,0,6.76,3.758,6.76,8.643Z" transform="translate(0 -2.25)" fill="#0c65c3"/>
</svg>
